<svg width="24" height="24" viewBox="0 0 24 24" fill="none" xmlns="http://www.w3.org/2000/svg">
<path fill-rule="evenodd" clip-rule="evenodd" d="M1.3228 0.00158691H22.6733C23.4044 0.00158691 24 0.593368 24 1.32439V22.6749C24 23.4059 23.4044 23.9977 22.6733 23.9977H16.5699V14.7191H19.6982L20.0785 11.7674L20.167 11.0868H16.5699V8.77387C16.5699 7.72181 16.86 7.01013 18.3645 7.01013H20.2714V3.76887C20.1997 3.75887 20.0907 3.74654 19.9506 3.73334C19.4402 3.68425 18.5156 3.62228 17.4742 3.62228C14.7125 3.62228 12.8173 5.31253 12.8173 8.41454V11.0868H9.70056V14.7188H9.70366V14.7191H12.8173V23.9977H1.3228C0.591781 23.9977 0 23.4059 0 22.6749V1.32439C0 0.593368 0.595649 0.00158691 1.3228 0.00158691Z" fill="white"/>
</svg>
