<svg width="15" height="24" viewBox="0 0 15 24" fill="none" xmlns="http://www.w3.org/2000/svg">
<path fill-rule="evenodd" clip-rule="evenodd" d="M7.7848 12.387C11.2007 12.387 13.9789 9.60965 13.9789 6.19487C13.9789 2.77854 11.2007 0 7.7848 0C4.36886 0 1.59032 2.77854 1.59032 6.19487C1.59032 9.60965 4.36886 12.387 7.7848 12.387ZM7.7848 3.63023C9.19864 3.63023 10.3494 4.78065 10.3494 6.19487C10.3494 7.60754 9.19864 8.75834 7.7848 8.75834C6.37135 8.75834 5.22016 7.60754 5.22016 6.19487C5.22016 4.78065 6.37135 3.63023 7.7848 3.63023ZM13.8872 15.9496C12.768 16.6534 11.5512 17.1522 10.2905 17.4394L13.753 20.9026C14.4632 21.6104 14.4632 22.7596 13.753 23.4686C13.0448 24.1771 11.896 24.1771 11.1884 23.4686L7.78414 20.0657L4.38223 23.4686C4.02794 23.8225 3.56349 23.9997 3.09845 23.9997C2.63438 23.9997 2.17071 23.8225 1.81603 23.4686C1.10707 22.7596 1.10707 21.6111 1.81525 20.9026L5.2776 17.4394C4.01722 17.1522 2.80071 16.6527 1.68149 15.9496C0.833697 15.4155 0.578656 14.2959 1.11272 13.4475C1.646 12.5981 2.76561 12.3427 3.61457 12.877C6.15036 14.4716 9.41694 14.4723 11.9541 12.877C12.8029 12.3427 13.9229 12.5981 14.4565 13.4475C14.9906 14.2951 14.7352 15.4155 13.8872 15.9496Z" fill="white"/>
</svg>
