<svg width="26" height="22" viewBox="0 0 26 22" fill="none" xmlns="http://www.w3.org/2000/svg">
<path fill-rule="evenodd" clip-rule="evenodd" d="M10.0142 20.0804C9.25516 20.0804 9.32416 19.8054 9.11816 19.1154L6.91016 11.8744L23.8062 1.94342" fill="#9A9A9A"/>
<path fill-rule="evenodd" clip-rule="evenodd" d="M10.0142 20.0804C10.4962 20.0804 10.7722 19.8054 11.1172 19.5284L14.2212 16.5634L10.3592 14.2194" fill="#555555"/>
<path fill-rule="evenodd" clip-rule="evenodd" d="M10.359 14.2191L19.669 21.0461C20.634 21.6661 21.462 21.3221 21.737 20.0801L25.53 2.2881C25.875 0.771103 24.91 0.0821028 23.875 0.565103L1.73895 9.1151C0.290954 9.6671 0.290953 10.5641 1.46295 10.9081L7.18695 12.7011L20.289 4.3571C20.91 4.0121 21.462 4.1511 21.048 4.6331" fill="white"/>
</svg>
