<svg width="26" height="22" viewBox="0 0 26 22" fill="none" xmlns="http://www.w3.org/2000/svg">
<path d="M8.51176 21.1934C17.9796 21.1934 23.1581 13.3493 23.1581 6.54705C23.1581 6.32426 23.1581 6.10246 23.143 5.88168C24.1505 5.15298 25.0201 4.25073 25.7112 3.21716C24.7717 3.63345 23.7751 3.90645 22.7546 4.02705C23.8292 3.38374 24.6335 2.37191 25.0177 1.17988C24.0073 1.77948 22.9018 2.20205 21.749 2.42934C20.1534 0.732679 17.618 0.317414 15.5645 1.41641C13.511 2.5154 12.4501 4.85534 12.9767 7.12411C8.83782 6.91662 4.98163 4.96171 2.36782 1.7459C1.00156 4.09795 1.69942 7.10691 3.96151 8.61745C3.14233 8.59317 2.341 8.37218 1.62517 7.97315C1.62517 7.99422 1.62517 8.0163 1.62517 8.03838C1.62584 10.4887 3.35309 12.5992 5.75492 13.0844C4.99708 13.2911 4.20195 13.3213 3.43062 13.1727C4.10497 15.2696 6.0375 16.7061 8.23979 16.7475C6.41702 18.18 4.1653 18.9577 1.84696 18.9554C1.4374 18.9546 1.02824 18.9298 0.621582 18.8811C2.97563 20.3918 5.71469 21.1931 8.51176 21.1894" fill="white"/>
</svg>
