<svg width="28" height="21" viewBox="0 0 28 21" fill="none" xmlns="http://www.w3.org/2000/svg">
<path fill-rule="evenodd" clip-rule="evenodd" d="M11.2014 14.5997V6.20039L18.4741 10.3982L11.2014 14.5997ZM27.4188 3.66015C27.0958 2.45462 26.1451 1.50741 24.9431 1.1845C22.7581 0.59967 14 0.59967 14 0.59967C14 0.59967 5.24551 0.59967 3.06048 1.1845C1.85853 1.50741 0.90774 2.45462 0.588416 3.66015C0 5.84519 0 10.3982 0 10.3982C0 10.3982 0 14.9585 0.588416 17.1399C0.90774 18.3454 1.85853 19.2926 3.06048 19.612C5.24551 20.2004 14 20.2004 14 20.2004C14 20.2004 22.7581 20.2004 24.9431 19.612C26.1451 19.2926 27.0958 18.3454 27.4188 17.1399C28 14.9585 28 10.3982 28 10.3982C28 10.3982 28 5.84519 27.4188 3.66015Z" fill="white"/>
</svg>
