<svg width="19" height="19" viewBox="0 0 19 19" fill="none" xmlns="http://www.w3.org/2000/svg">
<g id="Group">
<circle id="Oval" cx="9.02441" cy="9.02466" r="9" fill="#777777"/>
<path id="?" fill-rule="evenodd" clip-rule="evenodd" d="M7.70593 10.7024V10.1915C7.70593 9.74961 7.80028 9.36528 7.989 9.03848C8.17771 8.71168 8.52292 8.36417 9.02463 7.99595C9.50792 7.65074 9.82666 7.36997 9.98086 7.15364C10.135 6.9373 10.2121 6.69566 10.2121 6.4287C10.2121 6.12951 10.1017 5.90168 9.88074 5.74518C9.65981 5.58869 9.35143 5.51044 8.95558 5.51044C8.26516 5.51044 7.47809 5.73598 6.59435 6.18705L5.8418 4.67503C6.86822 4.09968 7.95677 3.81201 9.10748 3.81201C10.0557 3.81201 10.8094 4.03985 11.3686 4.49553C11.9278 4.9512 12.2075 5.55877 12.2075 6.31823C12.2075 6.82454 12.0924 7.2618 11.8622 7.63003C11.6321 7.99825 11.1948 8.4125 10.5505 8.87278C10.1086 9.19958 9.82896 9.44813 9.71159 9.61843C9.59422 9.78874 9.53554 10.012 9.53554 10.2881V10.7024H7.70593ZM7.48499 13.0636C7.48499 12.677 7.58855 12.3847 7.79568 12.1868C8.00281 11.9889 8.30429 11.8899 8.70013 11.8899C9.08216 11.8899 9.37789 11.9912 9.58732 12.1937C9.79675 12.3962 9.90146 12.6862 9.90146 13.0636C9.90146 13.4272 9.79559 13.7138 9.58386 13.9232C9.37214 14.1326 9.07756 14.2373 8.70013 14.2373C8.31349 14.2373 8.01431 14.1349 7.80259 13.9301C7.59086 13.7253 7.48499 13.4364 7.48499 13.0636Z" fill="#222222"/>
</g>
</svg>
